PathFileType	4	(X/Y/Z)	C:\Users\Willi\Documents\Github\OpenSimMatlabBasic\ExampleData\Trials\dynamic03\marker_experimental.trc
DataRate	CameraRate	NumFrames	NumMarkers	Units	OrigDataRate	OrigDataStartFrame	OrigNumFrames
150.000000	150.000000	2	179	mm	150.000000	23	189
Frame#	Time	LFHD			LBHD			RFHD			RBHD			C7			T10			CLAV			STRN			RBAK			LSHO			LUPA			LELB			LFRA			LWRB			LWRA			LFIN			RSHO			RUPA			RELB			RFRA			RWRB			RWRA			RFIN			SACR			LASI			RASI			LT1			LT2			LT3			LS1			LS2			LS3			LTOE			RT1			RT2			RT3			RS1			RS2			RS3			RHEE			RTOE			SACO			SACA			SACL			SACP			LHEE			RM5D			LM5D			LKNE			RKNE			LANK			RANK			LKJC			RKJC			LAJC			RAJC			LTHI			RTHI			LTIB			RTIB			P_ForcePlate1			P_ForcePlate2			P_ForcePlate3			funktRKJC			funktLKJC			funktRHIP			funktLHIP			LHJC			RHJC			LKNEshank			RKNEshank			LKJCshank			RKJCshank			LHF			COP_FP1			VECTIP_FP1			RawCentreFP1			COP_FP2			VECTIP_FP2			RawCentreFP2			COP_FP3			VECTIP_FP3			RawCentreFP3			LPelvisAngles			RPelvisAngles			LFootProgressAngles			RFootProgressAngles			LHipAngles			RHipAngles			LKneeAngles			RKneeAngles			LAnkleAngles			RAnkleAngles			LFFootAngles			RFFootAngles			LAbsAnkleAngle			RAbsAnkleAngle			RNeckAngles			LNeckAngles			RSpineAngles			LSpineAngles			LShoulderAngles			LElbowAngles			LWristAngles			RShoulderAngles			RElbowAngles			RWristAngles			RThoraxAngles			LThoraxAngles			RHeadAngles			LHeadAngles			LHipPower			LKneePower			LAnklePower			RHipPower			RKneePower			RAnklePower			LWaistPower			RWaistPower			LNeckPower			RNeckPower			LShoulderPower			RShoulderPower			LElbowPower			RElbowPower			LWristPower			RWristPower			F_ForcePlate1			F_ForcePlate2			F_ForcePlate3			LHipForce			RHipForce			LKneeForce			RKneeForce			LAnkleForce			RAnkleForce			LNormalisedGRF			RNormalisedGRF			LGroundReactionForce			RGroundReactionForce			LGRF			RGRF			LWaistForce			RWaistForce			LNeckForce			RNeckForce			LShoulderForce			RShoulderForce			LElbowForce			RElbowForce			LWristForce			RWristForce			Force_FP1			RawForceFP1			Force_FP2			RawForceFP2			Force_FP3			RawForceFP3			LHipMoment			RHipMoment			LKneeMoment			RKneeMoment			LAnkleMoment			RAnkleMoment			LGroundReactionMoment			RGroundReactionMoment			LWaistMoment			RWaistMoment			LNeckMoment			RNeckMoment			LShoulderMoment			RShoulderMoment			LElbowMoment			RElbowMoment			LWristMoment			RWristMoment			RawMomentFP1			RawMomentFP2			RawMomentFP3			
		X1	Y1	Z1	X2	Y2	Z2	X3	Y3	Z3	X4	Y4	Z4	X5	Y5	Z5	X6	Y6	Z6	X7	Y7	Z7	X8	Y8	Z8	X9	Y9	Z9	X10	Y10	Z10	X11	Y11	Z11	X12	Y12	Z12	X13	Y13	Z13	X14	Y14	Z14	X15	Y15	Z15	X16	Y16	Z16	X17	Y17	Z17	X18	Y18	Z18	X19	Y19	Z19	X20	Y20	Z20	X21	Y21	Z21	X22	Y22	Z22	X23	Y23	Z23	X24	Y24	Z24	X25	Y25	Z25	X26	Y26	Z26	X27	Y27	Z27	X28	Y28	Z28	X29	Y29	Z29	X30	Y30	Z30	X31	Y31	Z31	X32	Y32	Z32	X33	Y33	Z33	X34	Y34	Z34	X35	Y35	Z35	X36	Y36	Z36	X37	Y37	Z37	X38	Y38	Z38	X39	Y39	Z39	X40	Y40	Z40	X41	Y41	Z41	X42	Y42	Z42	X43	Y43	Z43	X44	Y44	Z44	X45	Y45	Z45	X46	Y46	Z46	X47	Y47	Z47	X48	Y48	Z48	X49	Y49	Z49	X50	Y50	Z50	X51	Y51	Z51	X52	Y52	Z52	X53	Y53	Z53	X54	Y54	Z54	X55	Y55	Z55	X56	Y56	Z56	X57	Y57	Z57	X58	Y58	Z58	X59	Y59	Z59	X60	Y60	Z60	X61	Y61	Z61	X62	Y62	Z62	X63	Y63	Z63	X64	Y64	Z64	X65	Y65	Z65	X66	Y66	Z66	X67	Y67	Z67	X68	Y68	Z68	X69	Y69	Z69	X70	Y70	Z70	X71	Y71	Z71	X72	Y72	Z72	X73	Y73	Z73	X74	Y74	Z74	X75	Y75	Z75	X76	Y76	Z76	X77	Y77	Z77	X78	Y78	Z78	X79	Y79	Z79	X80	Y80	Z80	X81	Y81	Z81	X82	Y82	Z82	X83	Y83	Z83	X84	Y84	Z84	X85	Y85	Z85	X86	Y86	Z86	X87	Y87	Z87	X88	Y88	Z88	X89	Y89	Z89	X90	Y90	Z90	X91	Y91	Z91	X92	Y92	Z92	X93	Y93	Z93	X94	Y94	Z94	X95	Y95	Z95	X96	Y96	Z96	X97	Y97	Z97	X98	Y98	Z98	X99	Y99	Z99	X100	Y100	Z100	X101	Y101	Z101	X102	Y102	Z102	X103	Y103	Z103	X104	Y104	Z104	X105	Y105	Z105	X106	Y106	Z106	X107	Y107	Z107	X108	Y108	Z108	X109	Y109	Z109	X110	Y110	Z110	X111	Y111	Z111	X112	Y112	Z112	X113	Y113	Z113	X114	Y114	Z114	X115	Y115	Z115	X116	Y116	Z116	X117	Y117	Z117	X118	Y118	Z118	X119	Y119	Z119	X120	Y120	Z120	X121	Y121	Z121	X122	Y122	Z122	X123	Y123	Z123	X124	Y124	Z124	X125	Y125	Z125	X126	Y126	Z126	X127	Y127	Z127	X128	Y128	Z128	X129	Y129	Z129	X130	Y130	Z130	X131	Y131	Z131	X132	Y132	Z132	X133	Y133	Z133	X134	Y134	Z134	X135	Y135	Z135	X136	Y136	Z136	X137	Y137	Z137	X138	Y138	Z138	X139	Y139	Z139	X140	Y140	Z140	X141	Y141	Z141	X142	Y142	Z142	X143	Y143	Z143	X144	Y144	Z144	X145	Y145	Z145	X146	Y146	Z146	X147	Y147	Z147	X148	Y148	Z148	X149	Y149	Z149	X150	Y150	Z150	X151	Y151	Z151	X152	Y152	Z152	X153	Y153	Z153	X154	Y154	Z154	X155	Y155	Z155	X156	Y156	Z156	X157	Y157	Z157	X158	Y158	Z158	X159	Y159	Z159	X160	Y160	Z160	X161	Y161	Z161	X162	Y162	Z162	X163	Y163	Z163	X164	Y164	Z164	X165	Y165	Z165	X166	Y166	Z166	X167	Y167	Z167	X168	Y168	Z168	X169	Y169	Z169	X170	Y170	Z170	X171	Y171	Z171	X172	Y172	Z172	X173	Y173	Z173	X174	Y174	Z174	X175	Y175	Z175	X176	Y176	Z176	X177	Y177	Z177	X178	Y178	Z178	X179	Y179	Z179	

24	0.1533333333333333	-472.8636474609375	1221.284790039062	-374.6380920410156	-593.135009765625	1254.196655273438	-415.2186584472656	-481.2611083984375	1229.981079101562	-261.2554931640624	-610.7105102539062	1278.556518554688	-250.4021606445312	-694.0167236328125	1124.08740234375	-325.9512023925781	-730.9140625	973.2282104492188	-321.3591613769531	-585.3209228515625	1072.260375976562	-333.8424682617187	-559.493896484375	1018.284912109375	-336.1052246093749	-727.21484375	1049.02490234375	-242.6697998046874	-664.3218383789062	1095.234375	-463.7510375976562	-728.6416015625	917.0803833007812	-522.3828735351562	-736.6950073242188	855.4757080078125	-548.4463500976562	-726.3565063476562	786.5555419921875	-582.5769653320312	-682.613037109375	673.0093383789062	-625.3255615234375	-616.119140625	698.7750854492188	-633.6384887695312	-616.5966186523438	650.7562255859375	-675.5875244140625	-654.126708984375	1096.85009765625	-195.3746185302734	-693.86279296875	1001.321716308594	-146.7288513183593	-737.7354125976562	862.5594482421875	-105.3470001220703	-749.104736328125	712.2732543945312	-81.6729354858398	-748.1820678710938	668.70263671875	-73.22325134277339	-675.65673828125	671.9300537109375	-64.69644927978511	-689.9905395507812	612.196533203125	-32.65671920776364	-724.5198364257812	769.9633178710938	-310.8286743164062	-598.5927124023438	736.9498291015625	-430.3362426757812	-582.891845703125	736.9568481445312	-202.7065277099609	-659.38037109375	542.3425903320312	-454.5863647460937	-732.1917724609375	444.2528991699219	-434.1564025878906	-666.3283081054688	441.7027282714844	-438.153564453125	-792.3866577148438	231.5663452148438	-433.8629455566406	-906.1998291015625	190.3850860595703	-411.8302001953125	-772.5325927734375	136.7113037109375	-419.2850952148438	-760.0441284179688	49.42631530761721	-387.7488708496094	-547.1322631835938	538.8999633789062	-178.8719787597656	-548.7905883789062	423.0382995605469	-196.0120544433593	-503.4349975585938	447.3907470703125	-196.6846771240234	-466.5335693359375	238.9235382080078	-187.7286682128906	-510.1840209960938	124.4595718383789	-203.6551361083984	-381.9575805664062	189.1114196777344	-202.7651977539062	-428.1368713378906	42.74954223632814	-268.2665100097656	-284.2979431152344	104.2446746826172	-238.9082641601562	-689.5211181640625	761.3716430664062	-309.7088317871093	-684.5821533203125	760.1507568359375	-310.0494384765624	-689.8719482421875	761.3714599609375	-314.7957458496093	-677.3412475585938	810.87841796875	-310.5505981445312	-903.77001953125	74.84504699707033	-348.0731506347656	-293.7152099609375	78.50392913818361	-211.5471649169922	-780.145751953125	27.02258110046389	-420.1324768066406	-701.9920654296875	382.2766418457031	-423.9263305664062	-493.4518737792969	391.0814208984375	-208.5237731933593	-869.8450927734375	70.69203948974612	-393.6701049804688	-403.2728576660156	75.24230957031251	-220.7834320068359	-702.1654663085938	378.9815979003906	-371.7853698730469	-500.7715759277344	385.1084594726562	-260.4388122558594	-851.3692626953125	74.73403930664065	-359.1199035644531	-389.8955688476562	89.21768188476564	-255.1932678222656	-671.1179809570312	529.600830078125	-459.0409545898437	-551.9873657226562	537.5064697265625	-167.4252777099609	-818.0416259765625	226.490951538086	-451.9396057128906	-478.2366027832031	211.0419616699219	-179.0030822753906	-256.7200012207031	0.07899999618532701	-396.4200134277344	254.2699890136719	-0.2560999989509441	-231.3000030517578	950.1600341796875	1.404999971389795	-394.6300048828125	0	0	0	0	0	0	0	0	0	0	0	0	-639.2345581054688	675.5238647460938	-364.4175720214843	-632.803955078125	674.9918212890625	-262.6417236328124	-699.3978271484375	380.2881469726562	-418.2023010253906	-503.8155212402344	403.206298828125	-207.7657012939453	-701.1424560546875	378.5931091308594	-366.0137329101562	-503.5620422363281	398.1115112304688	-260.2854614257812	0.2453171461820602	1.825805187225342	-0.1441183239221572	-256.7200012207031	0.07899999618532701	-396.4200134277344	-256.7201232910156	-0.2513438165187593	-396.4246215820312	-256.7200012207031	0.07899999618532701	-396.4200134277344	254.2699890136719	-0.2560999989509441	-231.3000030517578	254.3151702880859	-0.5023738741874553	-231.3120574951172	254.2699890136719	-0.2560999989509441	-231.3000030517578	950.1600341796875	1.404999971389795	-394.6300048828125	950.1600341796875	1.404999971389795	-394.6300048828125	254.2699890136719	-0.2560999989509441	-231.3000030517578	13.82192230224609	-3.830901145935059	0.9457830190658567	13.82192230224609	3.830901145935059	-0.9457830190658567	10.0178337097168	-14.72100067138672	-2.602438688278199	-15.81643009185791	-6.320618629455566	-0.2247678339481358	1.993660449981689	3.297648668289185	2.209323644638062	38.26521301269531	6.385610103607178	2.028290510177613	14.19161033630371	-22.06473350524902	-3.352294683456422	3.981989145278931	-36.88971710205078	-0.135762691497805	16.27692031860352	7.91957426071167	1.748599648475647	-5.130707740783691	20.62249565124512	-1.608930110931395	4.770832183763384e-15	-2.385416091881692e-15	1.987846778527783e-15	0	-5.96354022970423e-16	1.987846699118444e-16	21.7083854675293	0	0	-0.1436859220266342	0	0	15.03015232086182	9.60430908203125	5.621272563934327	15.03015232086182	-9.60430908203125	-5.621272563934327	-10.71744537353516	-0.5690160989761353	0.5499354600906372	-10.71744537353516	0.5690160989761353	-0.5499354600906372	-15.06151962280273	-20.16818809509277	-16.97124290466309	47.02738571166992	-2.525360346186667e-12	-1.546337232325577e-28	11.7781286239624	98.73241424560547	-3.079226970672601	-25.24724197387695	-6.511475563049316	-14.91115379333496	38.48970413208008	-2.208994705904521e-12	1.503309098468232e-15	7.647570610046387	84.68131256103516	-4.902218818664545	3.093547344207764	4.601390361785889	-0.6505635976791379	3.093547344207764	-4.601390361785889	0.6505635976791379	-18.60921669006348	-6.478841304779053	-4.734258651733398	-18.60921669006348	6.478841304779053	4.734258651733398	0	-0.03094371035695076	-1.894755792119127e-18	0	0.0456530973315239	2.795445975910666e-18	0	-0.0002216527354903519	-1.357231565202572e-20	0	0.1569896340370178	9.612842641137413e-18	0	-0.545584499835968	-3.340741556942639e-17	0	0.0005809777649119496	3.557462800876013e-20	nan	nan	nan	nan	nan	nan	nan	nan	nan	nan	nan	nan	0	-0.003274440066888928	-2.005016273457686e-19	0	-0.007075084839016199	-4.332240000898577e-19	0	0.01481219008564949	9.069850588376404e-19	0	-0.005344103556126356	-3.272319657161065e-19	0	0.001084848074242473	6.642778608411072e-20	0	-0.001181334257125854	-7.23358608356147e-20	-256.7201232910156	-0.2513438165187593	-396.4246215820312	254.3151702880859	-0.5023738145828105	-231.3120422363281	950.1600341796875	1.404999971389795	-394.6300048828125	0.2453171461820602	1.825805187225342	-0.1441183388233184	0.368511438369751	1.761618971824646	0.1107596307992936	-0.06955546885728836	0.737092137336731	-0.1265327036380767	-0.5126026272773743	0.732871413230896	0.2385443598031998	-0.1729643195867538	-0.005730459932237861	-0.03914286196231842	-0.1094158887863159	-0.4074297249317169	0.04440688341856	0	0	0	0	0	0	0	0	0	0	0	0	0	0	0	0	0	0	nan	nan	nan	nan	nan	nan	nan	nan	nan	nan	nan	nan	0.1879934072494507	0.5156942009925842	0.1283895373344422	0.1409172713756561	0.4790149927139282	-0.2156879007816314	-0.08099181950092316	0.2323645502328873	0.04703093692660333	-0.1135173887014389	0.1963421106338501	-0.09206340461969374	0.01609139144420624	0.06272178888320923	0.02384959347546101	0.02226375974714756	0.04653997346758842	-0.05072972550988197	-256.7201232910156	-0.2513438165187593	-396.4246215820312	-0.0001322387397522107	-0.3303438127040863	-0.004620724823325892	254.3151702880859	-0.5023738145828105	-231.3120422363281	0.04518882185220718	-0.2462738305330276	-0.01204590406268837	950.1600341796875	1.404999971389795	-394.6300048828125	0.04518882185220718	-0.2462738305330276	-0.01204590406268837	-27.59604644775391	-1.975146412849422	-71.90133666992188	218.4912414550781	8.00886249542236	43.57876968383789	-18.39152336120605	3.488338232040407	-32.07572555541992	-181.0641632080078	4.970530986785894	-85.66024780273438	-6.777336120605469	1.788065910339355	-1.243662238121033	7.43565034866333	4.291473388671875	-1.38430655002594	nan	nan	nan	nan	nan	nan	nan	nan	nan	nan	nan	nan	nan	nan	nan	nan	nan	nan	28.24468612670898	-3.766756534576415	-21.54221343994141	-5.608843326568604	-7.411663055419919	-42.19337463378906	-7.376688003540039	-0.03598030284047096	-5.114575862884521	-20.17025184631348	0.09330136328935697	-12.02603626251221	0.6188197731971741	-1.491756781317557e-15	-1.011618852615356	0.9611408114433289	-1.37184458526551e-15	-3.169728517532349	7.805319786071777	0.6023484468460092	-15.10709571838379	11.00276756286621	-15.2636251449585	-13.61529159545899	11.00276756286621	-15.2636251449585	-13.61529159545899	
25	0.16	-464.925537109375	1220.036743164062	-373.6763916015624	-585.187744140625	1253.138671875	-414.0478515624999	-473.0953979492188	1228.810791015625	-260.2991027832031	-602.4263305664062	1277.614135742188	-249.2279510498046	-685.9804077148438	1122.9541015625	-324.6603393554687	-722.5968017578125	972.0175170898438	-320.3771667480468	-577.1085815429688	1071.223388671875	-332.5334777832031	-551.1968383789062	1017.294250488281	-334.8077392578124	-719.10205078125	1047.660034179688	-241.525894165039	-656.2500610351562	1094.201782226562	-462.4743652343749	-720.5082397460938	915.921142578125	-520.8861694335938	-728.4716186523438	854.287353515625	-547.1142578125	-717.0031127929688	785.5924072265625	-581.7068481445312	-671.1971435546875	673.1013793945312	-625.3250122070312	-605.0573120117188	700.0294189453125	-632.9625854492188	-604.385986328125	652.5283813476562	-675.3991088867188	-646.1133422851562	1095.53759765625	-194.0669708251953	-685.9631958007812	999.9150390625	-145.6903228759765	-730.0321044921875	861.1254272460938	-104.6637573242187	-741.9664306640625	710.8751220703125	-81.37705230712886	-741.244384765625	667.3069458007812	-73.00358581542964	-668.7023315429688	670.1600952148438	-64.47687530517574	-683.2719116210938	610.2568969726562	-32.88001632690426	-715.9375610351562	768.7540893554688	-310.2424926757812	-590.1294555664062	735.7902221679688	-429.9781494140624	-574.1181030273438	735.5829467773438	-202.3468017578124	-651.9454956054688	541.3447875976562	-454.2559204101562	-725.4010620117188	443.6717834472656	-433.939208984375	-659.578125	440.7442626953125	-437.7738342285156	-788.6170654296875	232.098876953125	-433.9316101074219	-903.1387939453125	192.9394989013672	-412.4368896484375	-770.4734497070312	136.8764038085938	-419.3666687011719	-759.5802612304688	49.54406356811526	-387.8855590820312	-538.5903930664062	537.5139770507812	-178.7410888671875	-540.8733520507812	421.5976867675781	-195.6167449951172	-495.4209899902344	445.72216796875	-196.7361450195312	-457.676025390625	237.6600189208984	-187.2807006835937	-500.4417419433594	122.7221069335938	-203.1307373046875	-372.6742858886719	188.6456604003906	-202.3778381347656	-417.5494384765625	41.69581985473634	-267.8682861328125	-274.4164123535156	104.7098922729492	-238.4408416748047	-680.8843383789062	760.1345825195312	-309.1935119628906	-675.9462890625	758.9121704101562	-309.5419616699218	-681.2421264648438	760.1392211914062	-314.2799377441406	-668.687255859375	809.6376342773438	-310.0063171386718	-902.982177734375	77.42213439941409	-348.683349609375	-283.5587463378906	78.78663635253908	-211.1370849609375	-779.9988403320312	27.09146308898928	-420.0628356933594	-695.6110229492188	381.5618591308594	-423.6025695800781	-485.785400390625	389.4072875976562	-208.5265655517578	-868.9822387695312	72.53334808349612	-394.2316284179688	-393.1140747070312	74.4894256591797	-220.3440551757812	-695.93359375	378.3009033203125	-371.460205078125	-493.57421875	383.3532104492188	-260.3638916015625	-850.5830078125	76.22370910644534	-359.6012878417969	-379.89013671875	88.56043243408205	-254.7742156982422	-663.4981079101562	528.6260375976562	-458.6880187988281	-543.250732421875	536.1595458984375	-167.4119873046875	-814.24267578125	227.6607208251953	-452.3022155761719	-469.353759765625	209.6284790039062	-178.7152709960938	-256.7200012207031	0.07899999618532701	-396.4200134277344	254.2699890136719	-0.2560999989509441	-231.3000030517578	950.1600341796875	1.404999971389795	-394.6300048828125	0	0	0	0	0	0	0	0	0	0	0	0	-630.7034301757812	674.3186645507812	-364.0490417480468	-624.1349487304688	673.6911010742188	-262.2825317382812	-693.1627197265625	379.1915893554688	-417.7278137207031	-496.3245239257812	401.6241455078125	-207.3385009765625	-695.15185546875	377.4739990234375	-365.5487365722656	-496.0880737304688	396.5110778808594	-259.8565673828125	0.2773879170417786	1.85845160484314	-0.1417409777641295	-256.7200012207031	0.07899999618532701	-396.4200134277344	-256.7201232910156	-0.2513438165187593	-396.4246215820312	-256.7200012207031	0.07899999618532701	-396.4200134277344	254.2699890136719	-0.2560999989509441	-231.3000030517578	254.3151702880859	-0.5023738741874553	-231.3120574951172	254.2699890136719	-0.2560999989509441	-231.3000030517578	950.1600341796875	1.404999971389795	-394.6300048828125	950.1600341796875	1.404999971389795	-394.6300048828125	254.2699890136719	-0.2560999989509441	-231.3000030517578	13.84137535095215	-3.918957710266113	0.9134113192558286	13.84137535095215	3.918957710266113	-0.9134113192558286	10.87899208068848	-14.50733184814453	-2.717169523239137	-16.41998100280762	-6.333502769470215	-0.2943313121795658	1.569927930831909	3.518826484680176	2.211602687835693	38.00933837890625	6.825109481811523	2.041116952896119	14.72360610961914	-22.00027656555176	-3.248380422592164	3.193250894546509	-37.35593032836914	0.08995924890041122	16.3717212677002	7.907981872558594	1.755963802337647	-5.075963497161865	20.5695686340332	-1.587216377258299	-3.18055471858951e-15	7.951386796473783e-16	-1.192708024765022e-14	9.541664367526768e-15	-5.963540229704231e-16	1.04361955343313e-15	21.7930736541748	0	0	-0.08437143266201019	0	0	15.22313785552979	9.410734176635742	5.763514041900636	15.22313785552979	-9.410734176635742	-5.763514041900636	-10.84408664703369	-0.428564876317978	0.4912903308868408	-10.84408664703369	0.428564876317978	-0.4912903308868408	-15.05208873748779	-20.48096656799316	-16.83896255493164	47.80863189697266	-9.573469404375312e-13	3.180554718589452e-15	12.17764282226562	99.01279449462891	-3.033319234848016	-25.43612480163574	-6.421688079833983	-14.8687801361084	38.39406585693359	-9.438296498520682e-13	-3.230250935698886e-16	7.626134872436523	84.69145202636719	-4.607999801635737	2.991100788116455	4.534181594848633	-0.5610584616661068	2.991100788116455	-4.534181594848633	0.5610584616661068	-18.70382499694824	-6.386936664581299	-4.796894073486328	-18.70382499694824	6.386936664581299	4.796894073486328	0	-0.03394169360399246	-2.078329321488478e-18	0	0.04964224994182587	3.039711124686497e-18	0	-0.002076074713841081	-1.271229126548118e-19	0	0.1260429322719574	7.717903678099963e-18	0	-0.3677335679531097	-2.251718684664058e-17	0	0.002228256082162261	1.364413339350317e-19	nan	nan	nan	nan	nan	nan	nan	nan	nan	nan	nan	nan	0	-0.0008030146709643304	-4.917046732324162e-20	0	-0.006411181762814522	-3.925716612291345e-19	0	0.01294300053268671	7.925302086858633e-19	0	-0.004994222428649664	-3.058079255737866e-19	0	0.000942360027693212	5.770290957794516e-20	0	-0.001224784413352609	-7.499641557289205e-20	-256.7201232910156	-0.2513438165187593	-396.4246215820312	254.3151702880859	-0.5023738145828105	-231.3120422363281	950.1600341796875	1.404999971389795	-394.6300048828125	0.2773879170417786	1.85845160484314	-0.1417409777641295	0.3806829452514648	1.779467821121216	0.1272881478071214	-0.05950339883565903	0.7577387094497681	-0.1183119863271713	-0.4792747497558594	0.720666229724884	0.226346105337143	-0.1763075888156891	-0.005681779235601423	-0.03633758798241615	-0.1023028641939163	-0.3913900554180145	0.04242042079567907	0	0	0	0	0	0	0	0	0	0	0	0	0	0	0	0	0	0	nan	nan	nan	nan	nan	nan	nan	nan	nan	nan	nan	nan	0.1896977871656418	0.5203701257705688	0.1364037692546845	0.1452869325876236	0.4889960885047913	-0.215281069278717	-0.08166313171386719	0.231739416718483	0.04995774850249292	-0.1147993728518486	0.2002859115600586	-0.0931214392185211	0.01635341718792915	0.06235622242093086	0.02231109514832497	0.02354008518159389	0.04747073352336884	-0.05078395456075668	-256.7201232910156	-0.2513438165187593	-396.4246215820312	-0.0001322387397522107	-0.3303438127040863	-0.004620724823325892	254.3151702880859	-0.5023738145828105	-231.3120422363281	0.04518882185220718	-0.2462738305330276	-0.01204590406268837	950.1600341796875	1.404999971389795	-394.6300048828125	0.04518882185220718	-0.2462738305330276	-0.01204590406268837	-39.58675003051758	-1.468536138534541	-71.19770050048828	203.88037109375	8.722039222717283	41.94981002807617	-17.58099746704102	3.616494894027712	-31.01910972595215	-173.2262420654297	4.684591293334966	-82.42137908935547	-6.714634895324707	1.620348334312439	-1.199332714080811	7.511347770690918	4.136835098266602	-1.251612782478332	nan	nan	nan	nan	nan	nan	nan	nan	nan	nan	nan	nan	nan	nan	nan	nan	nan	nan	29.21319389343262	-4.013524055480955	-22.82223701477051	-5.340381622314453	-7.734371185302732	-42.62644958496094	-6.625575065612793	-0.04585294052958456	-5.375486373901367	-20.18801116943359	0.05543475970625954	-12.52332496643066	0.5957074165344238	-1.763286607492317e-15	-0.8727765679359436	1.112475752830505	8.775737401855809e-16	-3.143394470214844	7.805319786071777	0.6023484468460092	-15.10709571838379	11.00276756286621	-15.2636251449585	-13.61529159545899	11.00276756286621	-15.2636251449585	-13.61529159545899	
